<svg width="512" height="512" xmlns="http://www.w3.org/2000/svg">

 <g>
  <title>background</title>
  <rect fill="none" id="canvas_background" height="402" width="582" y="-1" x="-1"/>
 </g>
 <g>
  <title>Layer 1</title>
  <g id="svg_1">
   <path fill="#ffffff" stroke="#ffffff" id="svg_2" d="m256,0c-141.391,0 -256,114.609 -256,256c0,141.391 114.609,256 256,256c141.391,0 256,-114.609 256,-256c0,-141.391 -114.609,-256 -256,-256zm0,472c-119.297,0 -216,-96.703 -216,-216s96.703,-216 216,-216s216,96.703 216,216s-96.703,216 -216,216z"/>
   <g id="svg_3">
    <g id="svg_4">
     <path fill="#ffffff" stroke="#ffffff" id="svg_5" d="m128.094,383.891l48,0l0,-192l-48,0l0,192zm192,-192c-41.094,0.688 -61.312,30.641 -64,32l0,-32l-48,0l0,192l48,0l0,-112c0,-4.108 10.125,-37 48,-32c20.344,1.328 31.312,28.234 32,32l0,112l47.812,0.219l0,-132.922c-1.687,-19.188 -11.281,-58.61 -63.812,-59.297zm-168,-64c-13.25,0 -24,10.734 -24,24s10.75,24 24,24s24,-10.734 24,-24s-10.75,-24 -24,-24z"/>
    </g>
   </g>
  </g>
  <g id="svg_6"/>
  <g id="svg_7"/>
  <g id="svg_8"/>
  <g id="svg_9"/>
  <g id="svg_10"/>
  <g id="svg_11"/>
  <g id="svg_12"/>
  <g id="svg_13"/>
  <g id="svg_14"/>
  <g id="svg_15"/>
  <g id="svg_16"/>
  <g id="svg_17"/>
  <g id="svg_18"/>
  <g id="svg_19"/>
  <g id="svg_20"/>
 </g>
</svg>