<svg width="511.626" height="511.626" xmlns="http://www.w3.org/2000/svg">

 <g>
  <title>background</title>
  <rect fill="none" id="canvas_background" height="402" width="582" y="-1" x="-1"/>
 </g>
 <g>
  <title>Layer 1</title>
  <g id="svg_1">
   <g id="svg_2">
    <path fill="#ffffff" id="svg_3" d="m49.106,178.729c6.472,4.567 25.981,18.131 58.528,40.685c32.548,22.554 57.482,39.92 74.803,52.099c1.903,1.335 5.946,4.237 12.131,8.71c6.186,4.476 11.326,8.093 15.416,10.852c4.093,2.758 9.041,5.852 14.849,9.277c5.806,3.422 11.279,5.996 16.418,7.7c5.14,1.718 9.898,2.569 14.275,2.569l0.287,0l0.288,0c4.377,0 9.137,-0.852 14.277,-2.569c5.137,-1.704 10.615,-4.281 16.416,-7.7c5.804,-3.429 10.752,-6.52 14.845,-9.277c4.093,-2.759 9.229,-6.376 15.417,-10.852c6.184,-4.477 10.232,-7.375 12.135,-8.71c17.508,-12.179 62.051,-43.11 133.615,-92.79c13.894,-9.703 25.502,-21.411 34.827,-35.116c9.332,-13.699 13.993,-28.07 13.993,-43.105c0,-12.564 -4.523,-23.319 -13.565,-32.264c-9.041,-8.947 -19.749,-13.418 -32.117,-13.418l-420.265,0c-14.655,0 -25.933,4.948 -33.832,14.844c-7.898,9.898 -11.847,22.27 -11.847,37.115c0,11.991 5.236,24.985 15.703,38.974c10.466,13.99 21.604,24.983 33.403,32.976z"/>
    <path fill="#ffffff" id="svg_4" d="m483.072,209.275c-62.424,42.251 -109.824,75.087 -142.177,98.501c-10.849,7.991 -19.65,14.229 -26.409,18.699c-6.759,4.473 -15.748,9.041 -26.98,13.702c-11.228,4.668 -21.692,6.995 -31.401,6.995l-0.291,0l-0.287,0c-9.707,0 -20.177,-2.327 -31.405,-6.995c-11.228,-4.661 -20.223,-9.229 -26.98,-13.702c-6.755,-4.47 -15.559,-10.708 -26.407,-18.699c-25.697,-18.842 -72.995,-51.68 -141.896,-98.501c-10.852,-7.228 -20.464,-15.513 -28.839,-24.838l0,226.685c0,12.57 4.471,23.319 13.418,32.265c8.945,8.949 19.701,13.422 32.264,13.422l420.266,0c12.56,0 23.315,-4.473 32.261,-13.422c8.949,-8.949 13.418,-19.694 13.418,-32.265l0,-226.685c-8.186,9.132 -17.7,17.417 -28.555,24.838z"/>
   </g>
  </g>
  <g id="svg_5"/>
  <g id="svg_6"/>
  <g id="svg_7"/>
  <g id="svg_8"/>
  <g id="svg_9"/>
  <g id="svg_10"/>
  <g id="svg_11"/>
  <g id="svg_12"/>
  <g id="svg_13"/>
  <g id="svg_14"/>
  <g id="svg_15"/>
  <g id="svg_16"/>
  <g id="svg_17"/>
  <g id="svg_18"/>
  <g id="svg_19"/>
 </g>
</svg>